<?xml version="1.0" standalone="no"?>
<!DOCTYPE svg PUBLIC "-//W3C//DTD SVG 20010904//EN"
 "http://www.w3.org/TR/2001/REC-SVG-20010904/DTD/svg10.dtd">
<svg version="1.0" xmlns="http://www.w3.org/2000/svg"
 width="979.000000pt" height="1280.000000pt" viewBox="0 0 979.000000 1280.000000"
 preserveAspectRatio="xMidYMid meet">
<metadata>
Created by potrace 1.15, written by Peter Selinger 2001-2017
</metadata>
<g transform="translate(0.000000,1280.000000) scale(0.100000,-0.100000)"
fill="#000000" stroke="none">
<path d="M4622 12750 c-36 -42 -49 -50 -90 -56 -154 -21 -148 -18 -305 -162
-116 -106 -146 -139 -151 -165 -7 -40 -50 -109 -102 -167 l-38 -42 -32 -246
c-26 -199 -38 -258 -59 -304 -14 -31 -31 -61 -38 -67 -7 -6 -107 -16 -223 -22
l-209 -12 -278 -141 -278 -141 -217 -220 c-224 -227 -465 -492 -594 -651 -40
-50 -110 -132 -154 -181 -103 -114 -225 -267 -286 -358 -26 -39 -97 -165 -158
-280 -141 -264 -204 -370 -247 -414 -50 -52 -93 -147 -103 -229 -8 -59 -16
-79 -47 -121 -63 -83 -177 -306 -248 -486 -78 -199 -204 -462 -233 -488 -19
-17 -26 -18 -77 -6 l-56 12 -38 -37 c-36 -36 -39 -43 -46 -114 -3 -43 -12
-120 -19 -172 l-13 -96 -125 -189 -125 -190 -17 -170 -16 -170 54 -252 c53
-247 55 -254 114 -366 77 -144 112 -200 196 -306 36 -46 66 -87 66 -90 0 -3
-43 -84 -95 -179 l-95 -174 0 -198 c0 -220 -7 -190 88 -391 43 -92 54 -104
156 -173 148 -101 235 -132 406 -146 129 -11 331 -46 514 -90 67 -16 209 -41
316 -55 107 -15 212 -31 233 -36 35 -9 37 -12 37 -49 0 -47 -35 -126 -61 -141
-10 -5 -47 -15 -81 -22 -61 -12 -64 -14 -102 -71 -35 -52 -42 -75 -67 -201
-23 -121 -33 -152 -63 -199 -46 -72 -83 -147 -136 -271 -24 -55 -81 -183 -128
-285 -102 -222 -126 -281 -153 -379 -12 -42 -42 -112 -69 -156 -114 -191 -250
-458 -280 -551 -22 -67 -69 -132 -221 -307 -116 -134 -148 -177 -153 -206 -3
-20 -28 -83 -56 -140 -42 -86 -50 -111 -50 -159 0 -49 4 -60 31 -88 l30 -31
-30 -121 c-17 -66 -31 -140 -31 -163 0 -75 30 -252 56 -336 l26 -83 91 -52
c110 -63 157 -69 304 -43 215 39 386 100 419 150 24 37 48 39 180 15 l120 -21
129 20 c215 33 370 86 501 171 33 22 66 40 73 40 6 0 25 30 41 66 l30 66 -31
39 c-17 21 -40 41 -52 44 -12 2 -49 9 -82 15 -128 24 -223 65 -315 135 -80 62
-84 68 -70 109 12 39 98 134 351 391 97 99 192 205 211 235 19 30 58 117 87
194 29 76 76 189 103 250 27 61 69 166 93 233 24 67 91 229 149 360 58 131
113 268 123 306 10 37 21 67 25 67 13 0 320 -338 373 -412 29 -40 85 -143 125
-228 l72 -155 239 -242 c228 -230 242 -246 279 -325 43 -93 228 -638 264 -782
13 -51 52 -154 89 -232 70 -150 111 -268 105 -306 -2 -19 -20 -29 -110 -63
-59 -22 -112 -44 -117 -50 -16 -16 -30 -130 -24 -189 l6 -56 328 0 327 0 109
116 c94 100 110 123 126 174 l18 60 65 -69 c99 -106 121 -137 144 -205 l21
-63 232 -6 c287 -9 1891 -7 2274 2 155 3 285 10 290 14 15 15 -27 35 -171 83
-226 75 -405 143 -486 185 -130 68 -330 231 -435 354 -42 49 -49 65 -67 147
l-20 93 -176 178 c-132 132 -183 177 -201 177 -13 0 -49 19 -80 42 -89 68
-434 411 -567 566 -112 130 -142 157 -326 299 -236 182 -377 297 -468 383 -36
34 -75 69 -88 77 -34 23 -49 59 -66 156 -8 48 -17 91 -20 95 -2 4 -35 29 -73
55 -55 38 -83 49 -147 62 -87 16 -108 30 -139 90 -11 22 -47 80 -80 129 -54
81 -61 97 -72 171 l-12 82 -77 89 c-112 127 -143 199 -97 224 16 8 34 2 88
-26 94 -50 254 -156 305 -202 65 -58 136 -98 210 -117 116 -31 171 -8 235 98
l38 62 -1 115 -2 115 -70 154 -70 154 -78 50 c-44 27 -169 104 -278 170 -219
133 -255 160 -291 221 -35 60 -85 185 -85 212 0 36 46 54 178 66 154 14 163
20 161 104 l-2 64 -48 35 c-27 19 -49 39 -49 43 0 4 21 28 46 52 59 59 87 104
79 130 -4 11 -53 66 -109 123 -128 127 -213 241 -277 371 -72 148 -91 231 -92
401 -2 232 59 436 166 552 37 40 42 51 48 112 7 68 52 199 88 257 31 51 104
72 289 85 146 10 199 17 422 54 47 8 140 15 208 15 67 0 211 7 320 16 260 21
322 16 497 -40 160 -52 225 -89 267 -155 41 -65 55 -121 83 -332 14 -103 32
-206 41 -230 33 -94 74 -262 83 -342 9 -79 43 -246 75 -364 8 -28 56 -122 108
-210 168 -281 248 -430 262 -486 5 -22 0 -35 -23 -65 l-30 -37 15 -70 c8 -38
13 -74 10 -81 -2 -6 -37 -56 -76 -112 -72 -100 -72 -100 -162 -141 l-89 -41
-127 0 -128 0 -67 -68 -68 -69 84 -76 c97 -88 83 -85 292 -63 l120 13 38 -25
c20 -14 37 -32 37 -41 0 -9 7 -182 16 -386 l16 -370 35 -65 c39 -72 95 -145
123 -160 16 -8 25 -1 62 50 24 33 45 59 48 60 3 0 23 -49 46 -108 40 -104 42
-108 90 -134 l49 -27 43 42 c40 40 42 43 42 103 0 62 0 62 -31 69 l-31 7 3
148 4 149 -37 15 c-35 13 -38 17 -38 55 0 36 3 41 24 41 18 0 27 -9 40 -42 25
-67 115 -211 185 -298 61 -77 66 -80 105 -80 23 0 46 4 51 8 9 6 35 77 35 94
0 3 -27 15 -60 27 -67 24 -60 11 -80 176 -13 107 -38 258 -47 282 -21 55 262
-58 292 -117 8 -15 34 -49 59 -77 l46 -51 40 15 c38 15 40 18 40 57 0 38 -6
48 -60 101 l-60 59 -28 -27 c-15 -15 -30 -27 -33 -27 -2 0 -3 26 -1 59 l4 58
-105 154 -104 154 -16 205 c-20 248 -42 330 -114 413 -46 54 -70 93 -61 102 3
3 24 -2 48 -10 l43 -15 -19 22 c-10 13 -29 35 -42 49 -18 20 -37 80 -78 240
-50 200 -53 222 -54 336 0 120 1 123 25 139 23 15 24 20 18 72 l-6 55 69 -6
c38 -4 130 -9 204 -13 132 -7 137 -6 190 19 72 35 189 123 217 165 12 18 33
64 48 102 15 39 60 116 103 178 94 132 156 259 183 377 44 189 86 289 144 341
24 21 36 42 40 70 8 53 -11 84 -68 111 -52 25 -56 36 -32 103 8 23 15 60 15
81 0 32 -5 41 -29 53 -31 17 -51 59 -51 111 0 21 -9 40 -26 56 -37 35 -61 78
-69 127 -6 40 -8 42 -41 42 -31 0 -34 3 -34 29 0 47 -20 55 -144 56 -132 1
-158 10 -285 106 -85 63 -277 237 -385 347 l-59 60 12 94 c22 175 92 337 295
691 114 200 151 258 199 315 86 102 362 534 480 752 62 114 69 123 321 447
124 159 210 258 321 368 84 83 160 165 169 182 28 55 45 138 71 352 30 244 41
304 65 351 10 20 63 92 117 160 199 252 253 333 253 381 0 27 -36 86 -61 99
-29 16 -79 13 -130 -7 -35 -14 -60 -36 -103 -88 -62 -77 -169 -175 -191 -175
-15 0 -37 63 -56 155 -20 105 -64 163 -115 153 -31 -6 -103 -117 -104 -160 0
-44 -33 -136 -60 -171 -18 -23 -25 -25 -80 -20 -83 6 -100 -5 -100 -66 0 -40
-3 -50 -20 -54 -32 -8 -25 -39 8 -37 15 1 32 2 38 1 19 -2 33 -114 40 -317 l6
-190 -132 -199 c-117 -175 -152 -219 -299 -374 -715 -754 -944 -1014 -1056
-1200 -21 -35 -62 -90 -91 -123 -58 -65 -225 -312 -324 -480 -34 -59 -90 -141
-123 -182 l-60 -76 -78 0 c-87 0 -62 -13 -259 141 -52 41 -153 113 -225 161
l-130 86 -161 32 -162 32 -113 -60 c-110 -58 -125 -62 -427 -136 -303 -73
-318 -76 -435 -76 l-122 0 -270 -90 c-148 -49 -275 -90 -282 -90 -9 0 -9 8 2
34 11 26 15 103 17 329 3 255 5 297 19 313 29 33 44 129 59 361 5 89 16 167
24 187 8 19 48 72 88 118 105 118 171 199 197 241 l22 36 106 -132 c183 -228
225 -264 358 -302 150 -44 234 14 266 185 6 36 16 71 22 78 5 6 30 12 56 12
63 1 123 16 137 35 7 9 15 42 18 73 13 108 34 134 121 147 60 8 81 19 95 46 7
11 18 87 26 169 11 114 21 169 45 237 52 150 76 235 88 310 14 95 63 244 105
324 49 93 86 218 86 293 0 74 -4 79 -130 156 -98 61 -114 77 -175 185 l-46 80
-112 38 c-62 22 -166 65 -232 97 -66 32 -212 95 -324 139 -203 81 -203 81
-295 81 l-91 -1 -43 -49z m4691 -518 c3 -4 -3 -18 -14 -31 -16 -20 -20 -21
-25 -7 -10 25 26 60 39 38z m-3653 -1386 c0 -14 -4 -28 -10 -31 -6 -4 -10 7
-10 24 0 17 5 31 10 31 6 0 10 -11 10 -24z m2165 -2994 c-8 -8 -35 20 -35 37
1 12 5 11 21 -8 11 -13 17 -26 14 -29z m-609 -3708 l-15 -29 -1 45 c0 41 1 43
16 28 14 -14 14 -18 0 -44z m-21 -643 c-12 -49 -25 -47 -25 3 0 43 2 47 16 35
10 -8 13 -21 9 -38z"/>
</g>
</svg>
